<svg width="103" height="29" viewBox="0 0 103 29" fill="none" xmlns="http://www.w3.org/2000/svg">
<path d="M17.7891 25.3906H14.0156V3.64062H17.7891V25.3906ZM20.7305 14.4102H16.9688V11.3633H20.7305V14.4102ZM3.19922 17.1523C5.08203 17.168 6.77734 17.1289 8.28516 17.0352C9.79297 16.9414 11.2969 16.7695 12.7969 16.5195L13.1836 19.6367C11.6523 19.8867 10.1172 20.0508 8.57812 20.1289C7.04688 20.207 5.25391 20.2383 3.19922 20.2227H1.28906V17.1523H3.19922ZM11.4844 8.62109H5.05078V18.7227H1.28906V5.59766H11.4844V8.62109ZM38.3156 18.0078H34.5422V3.64062H38.3156V18.0078ZM31.9523 17.3164C31.9523 18.6133 31.6555 19.8086 31.0617 20.9023C30.468 21.9961 29.5461 22.9258 28.2961 23.6914C27.0539 24.4648 25.4953 24.9922 23.6203 25.2734L22.1555 22.3086C23.757 22.1211 25.0539 21.7617 26.0461 21.2305C27.0383 20.6992 27.7414 20.0938 28.1555 19.4141C28.5695 18.7344 28.7766 18.0352 28.7766 17.3164V17.0352H31.9523V17.3164ZM32.7023 17.3164C32.7023 18.0352 32.9094 18.7344 33.3234 19.4141C33.7375 20.0938 34.4406 20.6953 35.4328 21.2188C36.4328 21.7422 37.7336 22.1055 39.3352 22.3086L37.8586 25.2734C35.968 24.9922 34.3977 24.4648 33.1477 23.6914C31.8977 22.9258 30.9758 22 30.382 20.9141C29.7961 19.8203 29.5031 18.6211 29.5031 17.3164V17.0352H32.7023V17.3164ZM26.3391 4.94141C27.4719 4.94141 28.4992 5.17188 29.4211 5.63281C30.3508 6.08594 31.0812 6.72266 31.6125 7.54297C32.1516 8.35547 32.4211 9.27344 32.4211 10.2969C32.4211 11.3438 32.1516 12.2812 31.6125 13.1094C31.0812 13.9297 30.3508 14.5742 29.4211 15.043C28.4992 15.5039 27.4719 15.7344 26.3391 15.7344C25.2062 15.7344 24.175 15.5039 23.2453 15.043C22.3234 14.5742 21.593 13.9297 21.0539 13.1094C20.5227 12.2812 20.257 11.3438 20.257 10.2969C20.257 9.27344 20.5227 8.35547 21.0539 7.54297C21.593 6.72266 22.3234 6.08594 23.2453 5.63281C24.175 5.17188 25.2062 4.94141 26.3391 4.94141ZM26.3391 8.11719C25.8547 8.10938 25.4289 8.1875 25.0617 8.35156C24.7023 8.50781 24.4211 8.75 24.218 9.07812C24.0227 9.39844 23.925 9.80469 23.925 10.2969C23.925 10.7969 24.0227 11.2148 24.218 11.5508C24.4211 11.8867 24.7023 12.1406 25.0617 12.3125C25.4289 12.4844 25.8547 12.5703 26.3391 12.5703C26.8078 12.5703 27.218 12.4844 27.5695 12.3125C27.9289 12.1406 28.2062 11.8828 28.4016 11.5391C28.5969 11.1953 28.6945 10.7812 28.6945 10.2969C28.6945 9.82031 28.5969 9.41797 28.4016 9.08984C28.2062 8.75391 27.9289 8.50781 27.5695 8.35156C27.218 8.1875 26.8078 8.10938 26.3391 8.11719ZM47.6039 25.332H43.8305V16.168H47.6039V25.332ZM55.2562 25.332H51.5062V16.168H55.2562V25.332ZM59.3578 18.3359H39.5766V15.3242H59.3578V18.3359ZM50.7797 5.14062C50.7797 6.57031 50.4477 7.91406 49.7836 9.17188C49.1273 10.4219 48.1078 11.4922 46.725 12.3828C45.35 13.2656 43.6391 13.8555 41.5922 14.1523L40.1625 11.1055C41.8969 10.8711 43.307 10.4375 44.393 9.80469C45.4867 9.16406 46.2758 8.43359 46.7602 7.61328C47.2445 6.78516 47.4867 5.96094 47.4867 5.14062V4.21484H50.7797V5.14062ZM51.4594 5.14062C51.4594 5.97656 51.7016 6.80469 52.1859 7.625C52.6703 8.4375 53.4594 9.16406 54.5531 9.80469C55.6547 10.4375 57.0766 10.8711 58.8187 11.1055L57.3773 14.1523C55.3383 13.8555 53.6234 13.2695 52.2328 12.3945C50.85 11.5117 49.8266 10.4492 49.1625 9.20703C48.4984 7.95703 48.1664 6.60156 48.1664 5.14062V4.21484H51.4594V5.14062Z" fill="white"/>
<path d="M81.3359 25.3203H77.8203V3.64062H81.3359V25.3203ZM78.6406 14.7734H75.3359V11.8086H78.6406V14.7734ZM76.4258 24.3242H72.9922V3.95703H76.4258V24.3242ZM64.5781 17.5977C66.0312 17.5977 67.3203 17.5664 68.4453 17.5039C69.5703 17.4414 70.7266 17.3125 71.9141 17.1172L72.1602 20.1289C70.957 20.3477 69.7734 20.4961 68.6094 20.5742C67.4531 20.6523 66.1094 20.6992 64.5781 20.7148H62.9727V17.5977H64.5781ZM71.0469 9.06641H66.7461V19.1445H62.9727V6.08984H71.0469V9.06641ZM98.6633 12.0547H93.7883V9.03125H98.6633V12.0547ZM100.48 19.4609H96.7414V3.6875H100.48V19.4609ZM100.948 25.0273H85.8078V22.0273H100.948V25.0273ZM89.5695 23.8789H85.8078V18.0898H89.5695V23.8789ZM89.8273 7.73047C89.8273 9.19922 89.6203 10.5664 89.2062 11.832C88.8 13.0977 88.1398 14.207 87.2258 15.1602C86.3117 16.1133 85.1398 16.8164 83.7102 17.2695L81.7766 14.2461C82.9797 13.8867 83.9523 13.3633 84.6945 12.6758C85.4445 11.9883 85.9797 11.2266 86.3 10.3906C86.6203 9.54688 86.7805 8.66016 86.7805 7.73047V6.57031H89.8273V7.73047ZM90.6242 7.77734C90.6242 8.62109 90.7766 9.4375 91.0812 10.2266C91.3859 11.0078 91.8898 11.7266 92.593 12.3828C93.3039 13.0391 94.2336 13.5469 95.382 13.9062L93.5539 16.8711C92.1633 16.4336 91.0187 15.7578 90.1203 14.8438C89.2297 13.9297 88.5812 12.8672 88.175 11.6562C87.7766 10.4453 87.5773 9.15234 87.5773 7.77734V6.57031H90.6242V7.77734ZM94.5969 7.94141H82.7961V4.95312H94.5969V7.94141Z" fill="url(#paint0_linear_349_6244)"/>
<defs>
<linearGradient id="paint0_linear_349_6244" x1="62" y1="14.5" x2="101.392" y2="14.5" gradientUnits="userSpaceOnUse">
<stop stop-color="#00AB42"/>
<stop offset="1" stop-color="#09DF75"/>
</linearGradient>
</defs>
</svg>
