<svg width="129" height="36" viewBox="0 0 129 36" fill="none" xmlns="http://www.w3.org/2000/svg">
<path d="M22.2363 31.9883H17.5195V4.80078H22.2363V31.9883ZM25.9131 18.2627H21.2109V14.4541H25.9131V18.2627ZM3.99902 21.6904C6.35254 21.71 8.47168 21.6611 10.3564 21.5439C12.2412 21.4268 14.1211 21.2119 15.9961 20.8994L16.4795 24.7959C14.5654 25.1084 12.6465 25.3135 10.7227 25.4111C8.80859 25.5088 6.56738 25.5479 3.99902 25.5283H1.61133V21.6904H3.99902ZM14.3555 11.0264H6.31348V23.6533H1.61133V7.24707H14.3555V11.0264ZM47.8945 22.7598H43.1777V4.80078H47.8945V22.7598ZM39.9404 21.8955C39.9404 23.5166 39.5693 25.0107 38.8271 26.3779C38.085 27.7451 36.9326 28.9072 35.3701 29.8643C33.8174 30.8311 31.8691 31.4902 29.5254 31.8418L27.6943 28.1357C29.6963 27.9014 31.3174 27.4521 32.5576 26.7881C33.7979 26.124 34.6768 25.3672 35.1943 24.5176C35.7119 23.668 35.9707 22.7939 35.9707 21.8955V21.5439H39.9404V21.8955ZM40.8779 21.8955C40.8779 22.7939 41.1367 23.668 41.6543 24.5176C42.1719 25.3672 43.0508 26.1191 44.291 26.7734C45.541 27.4277 47.167 27.8818 49.1689 28.1357L47.3232 31.8418C44.96 31.4902 42.9971 30.8311 41.4346 29.8643C39.8721 28.9072 38.7197 27.75 37.9775 26.3926C37.2451 25.0254 36.8789 23.5264 36.8789 21.8955V21.5439H40.8779V21.8955ZM32.9238 6.42676C34.3398 6.42676 35.624 6.71484 36.7764 7.29102C37.9385 7.85742 38.8516 8.65332 39.5156 9.67871C40.1895 10.6943 40.5264 11.8418 40.5264 13.1211C40.5264 14.4297 40.1895 15.6016 39.5156 16.6367C38.8516 17.6621 37.9385 18.4678 36.7764 19.0537C35.624 19.6299 34.3398 19.918 32.9238 19.918C31.5078 19.918 30.2188 19.6299 29.0566 19.0537C27.9043 18.4678 26.9912 17.6621 26.3174 16.6367C25.6533 15.6016 25.3213 14.4297 25.3213 13.1211C25.3213 11.8418 25.6533 10.6943 26.3174 9.67871C26.9912 8.65332 27.9043 7.85742 29.0566 7.29102C30.2188 6.71484 31.5078 6.42676 32.9238 6.42676ZM32.9238 10.3965C32.3184 10.3867 31.7861 10.4844 31.3271 10.6895C30.8779 10.8848 30.5264 11.1875 30.2725 11.5977C30.0283 11.998 29.9062 12.5059 29.9062 13.1211C29.9062 13.7461 30.0283 14.2686 30.2725 14.6885C30.5264 15.1084 30.8779 15.4258 31.3271 15.6406C31.7861 15.8555 32.3184 15.9629 32.9238 15.9629C33.5098 15.9629 34.0225 15.8555 34.4619 15.6406C34.9111 15.4258 35.2578 15.1035 35.502 14.6738C35.7461 14.2441 35.8682 13.7266 35.8682 13.1211C35.8682 12.5254 35.7461 12.0225 35.502 11.6123C35.2578 11.1924 34.9111 10.8848 34.4619 10.6895C34.0225 10.4844 33.5098 10.3867 32.9238 10.3965ZM59.5049 31.915H54.7881V20.46H59.5049V31.915ZM69.0703 31.915H64.3828V20.46H69.0703V31.915ZM74.1973 23.1699H49.4707V19.4053H74.1973V23.1699ZM63.4746 6.67578C63.4746 8.46289 63.0596 10.1426 62.2295 11.7148C61.4092 13.2773 60.1348 14.6152 58.4062 15.7285C56.6875 16.832 54.5488 17.5693 51.9902 17.9404L50.2031 14.1318C52.3711 13.8389 54.1338 13.2969 55.4912 12.5059C56.8584 11.7051 57.8447 10.792 58.4502 9.7666C59.0557 8.73145 59.3584 7.70117 59.3584 6.67578V5.51855H63.4746V6.67578ZM64.3242 6.67578C64.3242 7.7207 64.627 8.75586 65.2324 9.78125C65.8379 10.7969 66.8242 11.7051 68.1914 12.5059C69.5684 13.2969 71.3457 13.8389 73.5234 14.1318L71.7217 17.9404C69.1729 17.5693 67.0293 16.8369 65.291 15.7432C63.5625 14.6396 62.2832 13.3115 61.4531 11.7588C60.623 10.1963 60.208 8.50195 60.208 6.67578V5.51855H64.3242V6.67578Z" fill="#101828"/>
<path d="M102.17 31.9004H97.7754V4.80078H102.17V31.9004ZM98.8008 18.7168H94.6699V15.0107H98.8008V18.7168ZM96.0322 30.6553H91.7402V5.19629H96.0322V30.6553ZM81.2227 22.2471C83.0391 22.2471 84.6504 22.208 86.0566 22.1299C87.4629 22.0518 88.9082 21.8906 90.3926 21.6465L90.7002 25.4111C89.1963 25.6846 87.7168 25.8701 86.2617 25.9678C84.8164 26.0654 83.1367 26.124 81.2227 26.1436H79.2158V22.2471H81.2227ZM89.3086 11.583H83.9326V24.1807H79.2158V7.8623H89.3086V11.583ZM123.829 15.3184H117.735V11.5391H123.829V15.3184ZM126.1 24.5762H121.427V4.85938H126.1V24.5762ZM126.686 31.5342H107.76V27.7842H126.686V31.5342ZM112.462 30.0986H107.76V22.8623H112.462V30.0986ZM112.784 9.91309C112.784 11.749 112.525 13.458 112.008 15.04C111.5 16.6221 110.675 18.0088 109.532 19.2002C108.39 20.3916 106.925 21.2705 105.138 21.8369L102.721 18.0576C104.225 17.6084 105.44 16.9541 106.368 16.0947C107.306 15.2354 107.975 14.2832 108.375 13.2383C108.775 12.1836 108.976 11.0752 108.976 9.91309V8.46289H112.784V9.91309ZM113.78 9.97168C113.78 11.0264 113.971 12.0469 114.352 13.0332C114.732 14.0098 115.362 14.9082 116.241 15.7285C117.13 16.5488 118.292 17.1836 119.728 17.6328L117.442 21.3389C115.704 20.792 114.273 19.9473 113.15 18.8047C112.037 17.6621 111.227 16.334 110.719 14.8203C110.221 13.3066 109.972 11.6904 109.972 9.97168V8.46289H113.78V9.97168ZM118.746 10.1768H103.995V6.44141H118.746V10.1768Z" fill="url(#paint0_linear_349_3644)"/>
<defs>
<linearGradient id="paint0_linear_349_3644" x1="78" y1="18" x2="127" y2="18" gradientUnits="userSpaceOnUse">
<stop stop-color="#00AB42"/>
<stop offset="1" stop-color="#09DF75"/>
</linearGradient>
</defs>
</svg>
